<?xml version="1.0" standalone="no"?>
<!DOCTYPE svg PUBLIC "-//W3C//DTD SVG 20010904//EN"
 "http://www.w3.org/TR/2001/REC-SVG-20010904/DTD/svg10.dtd">
<svg version="1.0" xmlns="http://www.w3.org/2000/svg"
 width="332.000000pt" height="332.000000pt" viewBox="0 0 332.000000 332.000000"
 preserveAspectRatio="xMidYMid meet">
<metadata>
Created by potrace 1.11, written by Peter Selinger 2001-2013
</metadata>
<g transform="translate(0.000000,332.000000) scale(0.100000,-0.100000)"
fill="#000000" stroke="none">
<path d="M1485 3313 c-135 -17 -327 -71 -454 -130 -304 -138 -573 -400 -721
-705 -39 -79 -92 -225 -105 -287 -2 -9 -8 -37 -14 -63 -27 -115 -36 -375 -18
-513 15 -124 63 -291 116 -408 190 -419 564 -733 1002 -841 151 -37 158 -38
339 -42 194 -4 322 14 498 71 227 73 421 193 592 365 114 114 189 214 257 340
51 93 121 266 123 302 1 4 7 26 15 48 8 22 12 40 10 40 -3 0 -1 10 4 23 24 64
36 407 18 522 -35 223 -118 437 -238 617 -71 106 -91 131 -195 234 -218 219
-512 369 -819 419 -45 7 -364 14 -410 8z"/>
</g>
</svg>
